<svg xmlns="http://www.w3.org/2000/svg" viewBox="0 0 256 256">
  <defs>
    <linearGradient id="bg" x1="0" y1="0" x2="1" y2="1">
      <stop offset="0%" stop-color="#081225" />
      <stop offset="100%" stop-color="#111b42" />
    </linearGradient>
    <linearGradient id="lane" x1="0" y1="0" x2="1" y2="1">
      <stop offset="0%" stop-color="#22d3ee" />
      <stop offset="100%" stop-color="#7c3aed" />
    </linearGradient>
    <radialGradient id="m1" cx="35%" cy="30%" r="70%">
      <stop offset="0%" stop-color="#ffffff" />
      <stop offset="30%" stop-color="#67e8f9" />
      <stop offset="100%" stop-color="#06b6d4" />
    </radialGradient>
    <radialGradient id="m2" cx="35%" cy="30%" r="70%">
      <stop offset="0%" stop-color="#ffffff" />
      <stop offset="30%" stop-color="#f9a8d4" />
      <stop offset="100%" stop-color="#ec4899" />
    </radialGradient>
    <radialGradient id="m3" cx="35%" cy="30%" r="70%">
      <stop offset="0%" stop-color="#ffffff" />
      <stop offset="30%" stop-color="#fde68a" />
      <stop offset="100%" stop-color="#f59e0b" />
    </radialGradient>
  </defs>
  <rect width="256" height="256" rx="56" fill="url(#bg)" />
  <path
    d="M44 152c22-58 66-98 120-100 18 0 32 14 32 31 0 14-9 26-22 30-31 10-64 23-100 67"
    fill="none"
    stroke="url(#lane)"
    stroke-linecap="round"
    stroke-linejoin="round"
    stroke-width="26"
  />
  <path
    d="M44 152c22-58 66-98 120-100 18 0 32 14 32 31 0 14-9 26-22 30-31 10-64 23-100 67"
    fill="none"
    stroke="#0b1220"
    stroke-linecap="round"
    stroke-linejoin="round"
    stroke-width="15"
  />
  <circle cx="82" cy="162" r="23" fill="url(#m1)" />
  <circle cx="138" cy="118" r="22" fill="url(#m2)" />
  <circle cx="182" cy="87" r="20" fill="url(#m3)" />
</svg>
